<svg width="32" height="31" viewBox="0 0 32 31" fill="none" xmlns="http://www.w3.org/2000/svg">
<path d="M25.8777 25.4211L24.8912 24.4277L24.8886 24.4303L25.8777 25.4211ZM16 29.5L16.0018 28.1H16V29.5ZM1.99997 15.5H3.39998L3.39997 15.4981L1.99997 15.5ZM5.84997 5.85751L6.86366 6.82314L6.86615 6.82051L5.84997 5.85751ZM16 1.50001L15.9982 2.90001L16.0018 2.90001L16 1.50001ZM25.8777 5.57891L24.8895 6.57064L24.8912 6.57231L25.8777 5.57891ZM17.2789 16.944L16.7161 15.6621L16.716 15.6621L17.2789 16.944ZM4.98135 24.5665C4.51947 25.1865 4.64772 26.0636 5.2678 26.5255C5.88788 26.9874 6.76499 26.8592 7.22687 26.2391L4.98135 24.5665ZM11.6995 1.48924C11.1313 0.964816 10.2456 1.00028 9.7212 1.56845C9.19678 2.13662 9.23224 3.02234 9.80041 3.54676L11.6995 1.48924ZM19.5 14.8002L20.8222 14.3402L20.8222 14.3402L19.5 14.8002ZM20.9767 28.2946C21.1479 29.0486 21.8979 29.5211 22.6519 29.3499C23.4059 29.1788 23.8784 28.4288 23.7072 27.6748L20.9767 28.2946ZM2.19219 12.3526C1.4204 12.306 0.75698 12.8939 0.710402 13.6657C0.663825 14.4375 1.25173 15.101 2.02352 15.1475L2.19219 12.3526ZM26.7935 6.66127C27.3843 6.16245 27.4588 5.27915 26.96 4.68838C26.4612 4.09761 25.5779 4.02308 24.9871 4.5219L26.7935 6.66127ZM4.34386 20.2945C4.04864 19.5799 3.23 19.2399 2.51538 19.5351C1.80076 19.8304 1.46077 20.649 1.75599 21.3636L4.34386 20.2945ZM8.6836 29.054C9.36361 29.422 10.2132 29.1691 10.5812 28.4891C10.9492 27.8091 10.6962 26.9595 10.0162 26.5915L8.6836 29.054ZM22.1611 1.38209C21.4527 1.07216 20.6272 1.39515 20.3173 2.10351C20.0074 2.81187 20.3303 3.63737 21.0387 3.9473L22.1611 1.38209ZM27.8066 19.9094C27.5357 20.6336 27.9032 21.4403 28.6274 21.7112C29.3516 21.982 30.1583 21.6145 30.4292 20.8903L27.8066 19.9094ZM28.6 15.5018C28.6021 17.1608 28.2754 18.8039 27.6388 20.3359L30.2245 21.4103C31.003 19.5366 31.4025 17.5272 31.3999 15.4982L28.6 15.5018ZM27.6388 20.3359C27.0023 21.868 26.0684 23.2587 24.8912 24.4277L26.8641 26.4145C28.3039 24.9848 29.446 23.284 30.2245 21.4103L27.6388 20.3359ZM24.8886 24.4303C23.721 25.5958 22.3352 26.5198 20.8104 27.1495L21.879 29.7375C23.7439 28.9674 25.4388 27.8373 26.8667 26.4119L24.8886 24.4303ZM20.8104 27.1495C19.2855 27.7791 17.6515 28.1021 16.0018 28.1L15.9982 30.9C18.0158 30.9026 20.0142 30.5076 21.879 29.7375L20.8104 27.1495ZM16 28.1C9.04097 28.1 3.39997 22.459 3.39997 15.5H0.599976C0.599976 24.0054 7.49457 30.9 16 30.9V28.1ZM3.39997 15.4981C3.39557 12.2685 4.63611 9.16154 6.86366 6.82314L4.83629 4.89188C2.11185 7.75189 0.594591 11.5519 0.599977 15.5019L3.39997 15.4981ZM6.86615 6.82051C8.04157 5.58018 9.45773 4.59275 11.0279 3.91864L9.92337 1.34572C8.0031 2.17011 6.27125 3.37767 4.83379 4.89451L6.86615 6.82051ZM11.0279 3.91864C12.5982 3.24452 14.2894 2.89791 15.9982 2.90001L16.0017 0.100014C13.9119 0.0974467 11.8436 0.521329 9.92337 1.34572L11.0279 3.91864ZM16.0018 2.90001C17.6515 2.89787 19.2855 3.22087 20.8104 3.85054L21.879 1.26252C20.0142 0.492428 18.0158 0.0974011 15.9982 0.100014L16.0018 2.90001ZM20.8104 3.85054C22.3352 4.48021 23.721 5.40421 24.8886 6.56973L26.8667 4.58809C25.4388 3.16266 23.7439 2.03261 21.879 1.26252L20.8104 3.85054ZM24.8912 6.57231C26.0684 7.74132 27.0023 9.13204 27.6388 10.6641L30.2245 9.58972C29.446 7.71604 28.3039 6.0152 26.8641 4.58551L24.8912 6.57231ZM27.6388 10.6641C28.2754 12.1961 28.6021 13.8392 28.6 15.4982L31.3999 15.5018C31.4025 13.4728 31.003 11.4634 30.2245 9.58972L27.6388 10.6641ZM30 14.1C28.2178 14.1 22.1126 13.293 16.7161 15.6621L17.8417 18.2259C22.5322 16.1667 27.6969 16.9 30 16.9V14.1ZM16.716 15.6621C11.0051 18.1699 6.84863 22.0596 4.98135 24.5665L7.22687 26.2391C8.81759 24.1035 12.5949 20.5299 17.8418 18.2258L16.716 15.6621ZM9.80041 3.54676C11.9533 5.53392 16.5177 10.4888 18.1777 15.2602L20.8222 14.3402C18.9262 8.89016 13.9286 3.54667 11.6995 1.48924L9.80041 3.54676ZM18.1777 15.2601C19.0307 17.7125 19.6244 20.4771 20.0575 22.8862C20.2734 24.087 20.4471 25.1861 20.5941 26.109C20.7371 27.0076 20.8625 27.7916 20.9767 28.2946L23.7072 27.6748C23.6184 27.2835 23.5093 26.6113 23.3592 25.6687C23.213 24.7505 23.035 23.6237 22.8134 22.3908C22.3715 19.9327 21.7472 16.9993 20.8222 14.3402L18.1777 15.2601ZM2.02352 15.1475C3.38613 15.2298 5.86089 15.3077 8.57918 15.119C11.2722 14.932 14.3274 14.4762 16.783 13.4276L15.6833 10.8526C13.6589 11.7171 10.9737 12.146 8.38528 12.3257C5.82207 12.5036 3.47418 12.43 2.19219 12.3526L2.02352 15.1475ZM16.783 13.4276C21.4986 11.4139 25.5287 7.72921 26.7935 6.66127L24.9871 4.5219C23.6073 5.68696 19.9277 9.0401 15.6833 10.8526L16.783 13.4276ZM1.75599 21.3636C3.11251 24.6472 5.55902 27.3631 8.6836 29.054L10.0162 26.5915C7.45781 25.207 5.45458 22.9832 4.34386 20.2945L1.75599 21.3636ZM21.0387 3.9473C22.4739 4.57523 23.7798 5.46489 24.8895 6.57064L26.8658 4.58718C25.51 3.23626 23.9146 2.14931 22.1611 1.38209L21.0387 3.9473ZM28.6 15.5C28.6 17.0542 28.3193 18.5387 27.8066 19.9094L30.4292 20.8903C31.0575 19.2105 31.4 17.394 31.4 15.5H28.6Z" fill="#E3E4E6" fill-opacity="0.55"/>
</svg>
