<svg width="40" height="40" viewBox="0 0 40 40" fill="none" xmlns="http://www.w3.org/2000/svg">
<path d="M32.6999 32.7557L31.4315 31.4785L31.4282 31.4818L32.6999 32.7557ZM20 38L20.0023 36.2H20V38ZM2.00002 20H3.80002L3.80001 19.9975L2.00002 20ZM6.95001 7.60251L8.25332 8.84404L8.25653 8.84066L6.95001 7.60251ZM20 2.00002L19.9978 3.80002L20.0023 3.80001L20 2.00002ZM32.6999 7.24431L31.4294 8.51939L31.4316 8.52154L32.6999 7.24431ZM21.6444 21.8565L20.9208 20.2084L20.9206 20.2084L21.6444 21.8565ZM5.83322 31.6569C5.23937 32.4541 5.40426 33.5818 6.20151 34.1757C6.99875 34.7695 8.12646 34.6046 8.72031 33.8074L5.83322 31.6569ZM14.4709 1.98616C13.7403 1.31191 12.6016 1.3575 11.9273 2.08801C11.253 2.81851 11.2986 3.95729 12.0291 4.63155L14.4709 1.98616ZM24.5 19.1002L26.2001 18.5089L26.2 18.5088L24.5 19.1002ZM26.3987 36.4502C26.6187 37.4197 27.583 38.0271 28.5525 37.8071C29.5219 37.587 30.1294 36.6227 29.9093 35.6533L26.3987 36.4502ZM2.24716 15.9534C1.25485 15.8935 0.40188 16.6494 0.341995 17.6417C0.28211 18.634 1.03799 19.4869 2.03029 19.5468L2.24716 15.9534ZM33.8775 8.63592C34.637 7.99457 34.7329 6.85891 34.0915 6.09935C33.4502 5.33979 32.3145 5.24396 31.5549 5.8853L33.8775 8.63592ZM5.01358 26.1644C4.63401 25.2456 3.58148 24.8085 2.66268 25.188C1.74388 25.5676 1.30676 26.6201 1.68633 27.5389L5.01358 26.1644ZM10.5933 37.4266C11.4676 37.8998 12.5599 37.5746 13.033 36.7003C13.5061 35.826 13.1809 34.7336 12.3066 34.2605L10.5933 37.4266ZM27.9214 1.84841C27.0107 1.44992 25.9493 1.86519 25.5508 2.77595C25.1524 3.6867 25.5676 4.74804 26.4784 5.14653L27.9214 1.84841ZM35.18 25.6693C34.8317 26.6004 35.3042 27.6375 36.2353 27.9858C37.1664 28.334 38.2036 27.8615 38.5518 26.9304L35.18 25.6693ZM36.2 20.0023C36.2027 22.1354 35.7827 24.2478 34.9643 26.2176L38.2887 27.5989C39.2897 25.1899 39.8033 22.6064 39.8 19.9977L36.2 20.0023ZM34.9643 26.2176C34.1458 28.1874 32.9451 29.9754 31.4316 31.4785L33.9682 34.0329C35.8193 32.1947 37.2877 30.008 38.2887 27.5989L34.9643 26.2176ZM31.4282 31.4818C29.9271 32.9803 28.1453 34.1683 26.1848 34.9779L27.5588 38.3053C29.9565 37.3152 32.1356 35.8623 33.9716 34.0296L31.4282 31.4818ZM26.1848 34.9779C24.2243 35.7874 22.1234 36.2027 20.0023 36.2L19.9977 39.8C22.5918 39.8033 25.1611 39.2954 27.5588 38.3053L26.1848 34.9779ZM20 36.2C11.0527 36.2 3.80002 28.9473 3.80002 20H0.200018C0.200018 30.9355 9.0645 39.8 20 39.8V36.2ZM3.80001 19.9975C3.79435 15.8453 5.38933 11.8505 8.25332 8.84403L5.6467 6.36099C2.14386 10.0381 0.193094 14.9239 0.20002 20.0025L3.80001 19.9975ZM8.25653 8.84066C9.76779 7.24595 11.5886 5.97639 13.6074 5.10967L12.1872 1.80164C9.71832 2.86157 7.49165 4.41415 5.64349 6.36436L8.25653 8.84066ZM13.6074 5.10967C15.6263 4.24296 17.8008 3.79731 19.9978 3.80001L20.0022 0.200018C17.3154 0.196717 14.6562 0.741709 12.1872 1.80164L13.6074 5.10967ZM20.0023 3.80001C22.1234 3.79727 24.2243 4.21255 26.1848 5.02212L27.5588 1.69466C25.1611 0.704551 22.5918 0.196659 19.9977 0.200018L20.0023 3.80001ZM26.1848 5.02212C28.1453 5.8317 29.9271 7.0197 31.4282 8.51822L33.9716 5.9704C32.1356 4.1377 29.9565 2.68478 27.5588 1.69466L26.1848 5.02212ZM31.4316 8.52154C32.9451 10.0246 34.1458 11.8126 34.9643 13.7824L38.2887 12.4011C37.2877 9.99205 35.8193 7.80526 33.9682 5.96708L31.4316 8.52154ZM34.9643 13.7824C35.7827 15.7522 36.2027 17.8646 36.2 19.9977L39.8 20.0023C39.8033 17.3936 39.2897 14.8101 38.2887 12.4011L34.9643 13.7824ZM38 18.2C35.7087 18.2 27.8591 17.1625 20.9208 20.2084L22.3679 23.5047C28.3986 20.8572 35.0389 21.8 38 21.8V18.2ZM20.9206 20.2084C13.5781 23.4327 8.234 28.4338 5.83322 31.6569L8.72031 33.8074C10.7655 31.0617 15.622 26.467 22.3681 23.5046L20.9206 20.2084ZM12.0291 4.63155C14.7972 7.18647 20.6657 13.5571 22.7999 19.6917L26.2 18.5088C23.7623 11.5016 17.3368 4.63144 14.4709 1.98616L12.0291 4.63155ZM22.7999 19.6916C23.8967 22.8446 24.6601 26.3991 25.2169 29.4966C25.4944 31.0404 25.7178 32.4536 25.9067 33.6401C26.0906 34.7954 26.2518 35.8035 26.3987 36.4502L29.9093 35.6533C29.7951 35.1502 29.6549 34.2859 29.4619 33.0741C29.2739 31.8935 29.0451 30.4447 28.7601 28.8596C28.1919 25.6991 27.3893 21.9277 26.2001 18.5089L22.7999 19.6916ZM2.03029 19.5468C3.78222 19.6526 6.96405 19.7527 10.459 19.5101C13.9215 19.2698 17.8496 18.6837 21.0067 17.3355L19.5929 14.0247C16.99 15.1362 13.5377 15.6877 10.2097 15.9188C6.91414 16.1475 3.89543 16.0528 2.24716 15.9534L2.03029 19.5468ZM21.0067 17.3355C27.0697 14.7464 32.2513 10.009 33.8775 8.63592L31.5549 5.8853C29.7809 7.38323 25.0499 11.6944 19.5929 14.0247L21.0067 17.3355ZM1.68633 27.5389C3.43041 31.7607 6.57594 35.2526 10.5933 37.4266L12.3066 34.2605C9.01723 32.4804 6.44165 29.6212 5.01358 26.1644L1.68633 27.5389ZM26.4784 5.14653C28.3236 5.95387 30.0026 7.09772 31.4294 8.51939L33.9704 5.96923C32.2272 4.23233 30.1759 2.83483 27.9214 1.84841L26.4784 5.14653ZM36.2 20C36.2 21.9982 35.8391 23.9069 35.18 25.6693L38.5518 26.9304C39.3597 24.7706 39.8 22.4352 39.8 20H36.2Z" fill="#E3E4E6"/>
</svg>
